<?xml version="1.0" encoding="UTF-8" standalone="no"?>
<svg
   width="512"
   height="512"
   viewBox="0 0 3072 3072"
   version="1.1"
   id="svg10"
   sodipodi:docname="icon.svg"
   inkscape:version="1.3.2 (091e20e, 2023-11-25, custom)"
   xmlns:inkscape="http://www.inkscape.org/namespaces/inkscape"
   xmlns:sodipodi="http://sodipodi.sourceforge.net/DTD/sodipodi-0.dtd"
   xmlns="http://www.w3.org/2000/svg"
   xmlns:svg="http://www.w3.org/2000/svg">
  <defs
     id="defs10">
    <inkscape:path-effect
       effect="bool_op"
       operand-path="#path10"
       id="path-effect106"
       is_visible="true"
       lpeversion="1"
       operation="inters"
       swap-operands="false"
       filltype-this="from-curve"
       filter=""
       filltype-operand="from-curve" />
    <inkscape:path-effect
       effect="bool_op"
       operand-path="#path10"
       id="path-effect105"
       is_visible="false"
       lpeversion="1"
       operation="inters"
       swap-operands="false"
       filltype-this="from-curve"
       filter=""
       filltype-operand="from-curve" />
    <inkscape:path-effect
       effect="bool_op"
       operand-path="#path10"
       id="path-effect103"
       is_visible="false"
       lpeversion="1"
       operation="inters"
       swap-operands="false"
       filltype-this="from-curve"
       filter=""
       filltype-operand="from-curve" />
    <filter
       id="selectable_hidder_filter"
       width="1"
       height="1"
       x="0"
       y="0"
       style="color-interpolation-filters:sRGB"
       inkscape:label="LPE boolean visibility">
      <feComposite
         id="boolops_hidder_primitive"
         result="composite1"
         operator="arithmetic"
         in2="SourceGraphic"
         in="BackgroundImage"
         k1="0"
         k2="0"
         k3="0"
         k4="0" />
    </filter>
    <inkscape:path-effect
       effect="bool_op"
       operand-path="#path10"
       id="path-effect58"
       is_visible="true"
       lpeversion="1"
       operation="inters"
       swap-operands="false"
       filltype-this="from-curve"
       filter=""
       filltype-operand="from-curve" />
  </defs>
  <sodipodi:namedview
     id="namedview10"
     pagecolor="#505050"
     bordercolor="#ffffff"
     borderopacity="1"
     inkscape:showpageshadow="0"
     inkscape:pageopacity="0"
     inkscape:pagecheckerboard="1"
     inkscape:deskcolor="#505050"
     inkscape:zoom="1.4142136"
     inkscape:cx="160.51324"
     inkscape:cy="257.74042"
     inkscape:window-width="1920"
     inkscape:window-height="1001"
     inkscape:window-x="-9"
     inkscape:window-y="41"
     inkscape:window-maximized="1"
     inkscape:current-layer="svg10" />
  <path
     id="path10"
     style="display:inline;fill:#b22234;fill-opacity:1;stroke-width:64.3428"
     d="M 3999,90 C 3313.9472,90 2656.9446,271.74258 2172.5391,595.24219 1928.8409,757.99065 1739.005,949.94782 1610.3789,1158.75 A 2641.8975,1871.4521 0 0 1 3136.1016,811.10156 2641.8975,1871.4521 0 0 1 5778,2682.5508 2641.8975,1871.4521 0 0 1 5671.1836,3201.9609 c 66.5378,172.7229 100.0228,357.4157 88.8164,548.0391 311.5065,-425.8518 571.8706,-928.4169 755.4961,-1546.0898 l -6.4219,6.914 C 6556.2161,2081.2096 6580.6882,1948.3804 6582,1815 6582,1357.5026 6309.8666,918.74179 5825.4609,595.24219 5341.0554,271.74258 4684.0528,90 3999,90 Z m -862.8984,961.9219 c -629.0974,0 -1232.4306,161.944 -1677.2696,450.1992 -444.839,288.2552 -694.74606,679.2128 -694.74606,1086.8672 1.2046,118.8488 23.6814,237.2058 66.97265,352.6992 l -5.90625,-6.1641 c 168.62694,550.3793 407.72276,998.1881 693.78516,1377.6446 -11.5321,-190.3402 28.2116,-374.1364 104.7773,-543.6094 424.6147,229.4042 959.5533,355.5019 1512.3868,356.4961 629.0974,0 1232.4304,-161.944 1677.2695,-450.1992 444.839,-288.2553 694.7461,-679.2128 694.7461,-1086.8672 0,-407.6544 -249.9071,-798.612 -694.7461,-1086.8672 C 4368.532,1213.8659 3765.199,1051.9219 3136.1016,1051.9219 Z"
     transform="matrix(0.50721258,0,0,0.62026878,-327.0136,170.42618)" />
  <path
     id="path108"
     style="color:#000000;fill:#ffffff;stroke-width:0.705097;-inkscape-stroke:none"
     d="m 1036.7241,374.32079 c -94.66147,45.5123 -182.80251,100.79854 -261.80048,165.31501 -18.3374,14.97586 -35.87535,30.4659 -52.998,46.21417 H 2680.7272 c -17.1241,-15.74613 -34.6538,-31.23949 -52.9897,-46.21417 -78.9981,-64.51647 -167.139,-119.80271 -261.8005,-165.31501 z M 542.47287,797.37915 c -19.30479,29.92607 -36.94195,60.53339 -52.68402,91.78386 a 1340.0037,1160.8033 0 0 1 180.09728,-91.78386 z m 1317.91773,0 a 1340.0037,1160.8033 0 0 1 340.6446,211.52915 h 761.9099 c -25.0338,-73.30964 -59.3305,-144.24881 -102.7486,-211.52915 z m -596.7354,25.52397 c -258.4618,0 -508.3182,65.94027 -713.8532,186.00518 H 1977.5166 C 1771.9815,888.84331 1522.1171,822.90312 1263.6552,822.90312 Z M 286.54731,1220.4375 c -59.42848,65.6018 -107.8318,136.7003 -144.41823,211.5292 H 2385.1812 c -36.5863,-74.8289 -84.9896,-145.9274 -144.4182,-211.5292 z m 2113.01949,0 a 1340.0037,1160.8033 0 0 1 117.3823,211.5292 h 482.4683 c 7.418,-44.9789 11.6734,-90.291 12.0389,-135.7504 0,-25.383 -1.4899,-50.6247 -3.6769,-75.7788 z M 72.473213,1643.4959 c -7.767986,43.7563 -11.931571,88.1025 -11.931571,132.8006 0.218127,26.3185 2.305428,52.5549 5.263431,78.7286 H 2462.3398 c 2.7297,-26.1039 4.4289,-52.3384 4.4289,-78.7286 0,-44.698 -4.1553,-89.0444 -11.9233,-132.8006 z m 2511.107587,0 a 1340.0037,1160.8033 0 0 1 20.0787,190.8307 1340.0037,1160.8033 0 0 1 -1.7765,20.6985 h 284.1596 c 22.7106,-67.9481 44.0785,-138.3517 63.9381,-211.5292 z M 111.82096,2066.5543 c 20.10106,73.4466 41.86762,143.9263 65.25175,211.5291 H 2286.2913 c 51.8384,-66.3452 93.1373,-137.3732 123.0588,-211.5291 z m 2460.34044,0 a 1340.0037,1160.8033 0 0 1 -22.6814,89.9495 c 12.4387,39.4863 21.7198,80.2637 29.3083,121.5796 h 134.3624 c 33.3362,-67.5437 65.1573,-137.8765 95.1632,-211.5291 z M 258.95763,2489.6126 c 31.98363,74.0612 66.03878,144.4241 101.93062,211.5292 h 88.40439 c 8.47223,-66.5641 24.55953,-131.119 47.26352,-192.5742 140.87405,93.0738 305.88931,158.1156 481.52636,192.5742 h 577.68118 c 186.5835,-37.0106 360.2453,-109.31 505.7697,-211.5292 z m 2335.73667,0 c -0.093,2.2812 -0.055,4.5411 -0.1652,6.8252 1.3302,-2.224 2.5816,-4.5945 3.9083,-6.8252 z" />
  <path
     id="rect2"
     style="display:inline;fill:#3c3b6e;stroke-width:0.705097"
     d="M 1470.1192,243.35449 C 1208.577,281.66734 965.39796,384.07826 774.92362,539.6358 651.3169,640.58349 555.02959,759.64965 489.78885,889.16301 a 1340.0037,1160.8033 0 0 1 773.86635,-215.63584 1340.0037,1160.8033 0 0 1 206.464,14.78225 z m -206.464,579.54863 c -319.08582,0 -625.09971,100.4478 -850.72745,279.24338 -185.74257,147.189 -304.27958,337.5792 -340.454537,541.3494 H 1470.1192 V 837.33008 c -67.756,-9.35673 -136.7588,-14.42696 -206.464,-14.42696 z" />
  <path
     id="s"
     style="display:inline;fill:#ffffff;stroke-width:0.705097"
     d="m 1311.7367,274.81119 c -11.6,2.95143 -23.099,6.14148 -34.5883,9.35356 l -0.1817,0.55361 h -1.8757 c -14.1835,3.98668 -28.2372,8.23703 -42.2397,12.61739 l 32.3739,23.51609 -18.9963,58.45972 49.734,-36.13348 49.7342,36.13348 -18.9963,-58.46798 49.7259,-36.12522 h -61.4674 z m -189.9382,99.5096 -18.9964,58.468 h -61.4674 l 49.7259,36.12521 -18.9963,58.46799 49.7342,-36.13348 49.734,36.13348 -18.9962,-58.45973 49.7341,-36.13347 h -61.4757 z M 816.65932,507.19583 c -3.4743,2.59831 -6.8111,5.34229 -10.25423,7.97365 l 16.81494,12.21251 z m 130.98281,15.19539 -18.9963,58.46799 h -61.47568 l 49.73411,36.13348 -18.9963,58.45972 49.73417,-36.13348 49.73417,36.13348 -18.9963,-58.45972 49.7341,-36.13348 h -61.47567 z m 348.32077,0 -18.9962,58.46799 h -61.4757 l 49.7342,36.13348 -18.6824,57.49297 a 1340.0037,1160.8033 0 0 1 1.099,-0.0578 l 48.3211,-35.1089 49.7342,36.13348 -18.9963,-58.46799 49.7259,-36.12521 h -61.4674 z M 645.11408,663.32254 c -1.68497,1.8763 -3.23061,3.8251 -4.89985,5.70963 l 8.84121,6.42024 z m 128.37178,7.13911 -18.99631,58.46799 h -61.47567 l 49.73417,36.13348 -1.13203,3.47866 a 1340.0037,1160.8033 0 0 1 104.23595,-33.729 l 8.09761,-5.88314 h -61.46742 z m 348.31264,0 -3.644,11.22096 a 1340.0037,1160.8033 0 0 1 7.1639,-0.39662 z m -522.47717,148.07042 -4.51149,13.8816 a 1340.0037,1160.8033 0 0 1 7.67618,-4.14795 z m 695.03047,4.97425 -17.3851,53.49375 h -61.4757 l 49.7342,36.13349 -18.9963,58.45968 49.734,-36.13348 49.7342,36.13348 -18.9963,-58.468 49.7259,-36.12517 h -61.4674 l -17.3603,-53.43591 c -1.082,-0.0242 -2.1648,-0.036 -3.2472,-0.0579 z m -335.14995,30.61389 c -8.33841,1.72898 -16.61999,3.60066 -24.90425,5.47 l -5.65177,17.40986 h -61.47568 l 49.73411,36.13349 -18.9963,58.45968 49.73417,-36.13348 49.73417,36.13348 -18.9963,-58.45968 49.7341,-36.13349 H 966.63843 Z M 644.86617,958.69497 c -2.71264,1.28913 -5.33088,2.70926 -8.03147,4.01574 l 12.22074,8.88253 z m 128.61969,7.90753 -18.99631,58.468 h -61.47567 l 49.73417,36.1335 -18.9963,58.4597 49.73411,-36.1335 49.73417,36.1335 -18.9963,-58.468 49.72585,-36.1252 h -61.46742 z m 348.31264,0 -18.9964,58.468 h -61.4674 l 49.7259,36.1252 -18.9963,58.468 49.7342,-36.1335 49.734,36.1335 -18.9962,-58.4597 49.7341,-36.1335 h -61.4757 z m -663.63157,101.5671 c -9.06354,6.4745 -17.82902,13.2541 -26.66425,19.963 l 43.39655,31.5311 z m 141.1544,46.5033 -18.9963,58.4681 h -61.46742 l 49.72585,36.1252 -18.9963,58.4679 49.73417,-36.1335 49.73411,36.1335 -18.9963,-58.4597 49.73417,-36.1334 h -61.47567 z m 348.3208,0 -18.9963,58.4681 h -61.47568 l 49.73411,36.1334 -18.9963,58.4597 49.73417,-36.1335 49.73417,36.1335 -18.9963,-58.4597 49.7341,-36.1334 h -61.47567 z m 348.32077,0 -18.9962,58.4681 h -61.4757 l 49.7342,36.1334 -18.9963,58.4597 49.734,-36.1335 49.7342,36.1335 -18.9963,-58.4679 49.7259,-36.1252 h -61.4674 z M 285.688,1221.4043 c -6.44571,7.1339 -12.90129,14.263 -19.08719,21.5247 l 34.14215,24.8051 z m 139.47706,41.3391 -18.9963,58.4679 h -61.47567 l 49.7341,36.1335 -18.9963,58.4598 49.73417,-36.1335 49.73417,36.1335 -18.9963,-58.4598 49.73411,-36.1335 h -61.47567 z m 348.3208,0 -18.99631,58.4679 h -61.47567 l 49.73417,36.1335 -18.9963,58.4598 49.73411,-36.1335 49.73417,36.1335 -18.9963,-58.4681 49.72585,-36.1252 h -61.46742 z m 348.31264,0 -18.9964,58.4679 h -61.4674 l 49.7259,36.1252 -18.9963,58.4681 49.7342,-36.1335 49.734,36.1335 -18.9962,-58.4598 49.7341,-36.1335 h -61.4757 z m -870.78971,148.0704 -18.99631,58.468 h -61.47567 l 49.73418,36.1335 -18.99631,58.4596 49.73411,-36.1334 49.73417,36.1334 -18.9963,-58.4679 49.72585,-36.1252 h -61.46742 z m 348.31254,0 -18.9963,58.468 h -61.46742 l 49.72585,36.1252 -18.9963,58.4679 49.73417,-36.1334 49.73411,36.1334 -18.9963,-58.4596 49.73417,-36.1335 h -61.47567 z m 348.3208,0 -18.9963,58.468 h -61.47568 l 49.73411,36.1335 -18.9963,58.4596 49.73417,-36.1334 49.73417,36.1334 -18.9963,-58.4596 49.7341,-36.1335 h -61.47567 z m 348.32077,0 -18.9962,58.468 h -61.4757 l 49.7342,36.1335 -18.9963,58.4596 49.734,-36.1334 49.7342,36.1334 -18.9963,-58.4679 49.7259,-36.1252 h -61.4674 z" />
  <path
     id="path109"
     style="display:inline;fill:none;fill-opacity:1;stroke-width:171.15368876;stroke:#000000;stroke-opacity:1;stroke-dasharray:none;paint-order:normal;stroke-linecap:butt;stroke-linejoin:miter;stroke-miterlimit:4.2"
     d="M 3999,90 C 3313.9472,90 2656.9446,271.74258 2172.5391,595.24219 1928.8409,757.99065 1739.005,949.94782 1610.3789,1158.75 A 2641.8975,1871.4521 0 0 1 3136.1016,811.10156 2641.8975,1871.4521 0 0 1 5778,2682.5508 2641.8975,1871.4521 0 0 1 5671.1836,3201.9609 c 66.5378,172.7229 100.0228,357.4157 88.8164,548.0391 311.5065,-425.8518 571.8706,-928.4169 755.4961,-1546.0898 l -6.4219,6.914 C 6556.2161,2081.2096 6580.6882,1948.3804 6582,1815 6582,1357.5026 6309.8666,918.74179 5825.4609,595.24219 5341.0554,271.74258 4684.0528,90 3999,90 Z m -862.8984,961.9219 c -629.0974,0 -1232.4306,161.944 -1677.2696,450.1992 -444.839,288.2552 -694.74606,679.2128 -694.74606,1086.8672 1.2046,118.8488 23.6814,237.2058 66.97265,352.6992 l -5.90625,-6.1641 c 168.62694,550.3793 407.72276,998.1881 693.78516,1377.6446 -11.5321,-190.3402 28.2116,-374.1364 104.7773,-543.6094 424.6147,229.4042 959.5533,355.5019 1512.3868,356.4961 629.0974,0 1232.4304,-161.944 1677.2695,-450.1992 444.839,-288.2553 694.7461,-679.2128 694.7461,-1086.8672 0,-407.6544 -249.9071,-798.612 -694.7461,-1086.8672 C 4368.532,1213.8659 3765.199,1051.9219 3136.1016,1051.9219 Z"
     transform="matrix(0.50721258,0,0,0.62026878,-327.0136,170.42618)" />
</svg>
