<?xml version="1.0" encoding="UTF-8" standalone="no"?>
<!-- Created with Inkscape (http://www.inkscape.org/) -->

<svg
   width="16"
   height="16"
   viewBox="0 0 16 16"
   version="1.1"
   id="svg1"
   inkscape:version="1.3.2 (091e20e, 2023-11-25, custom)"
   sodipodi:docname="dialog.svg"
   xmlns:inkscape="http://www.inkscape.org/namespaces/inkscape"
   xmlns:sodipodi="http://sodipodi.sourceforge.net/DTD/sodipodi-0.dtd"
   xmlns="http://www.w3.org/2000/svg"
   xmlns:svg="http://www.w3.org/2000/svg">
  <sodipodi:namedview
     id="namedview1"
     pagecolor="#505050"
     bordercolor="#ffffff"
     borderopacity="1"
     inkscape:showpageshadow="0"
     inkscape:pageopacity="0"
     inkscape:pagecheckerboard="1"
     inkscape:deskcolor="#505050"
     inkscape:document-units="px"
     showgrid="true"
     inkscape:zoom="45.254834"
     inkscape:cx="6.2755727"
     inkscape:cy="8.7173008"
     inkscape:window-width="1920"
     inkscape:window-height="1001"
     inkscape:window-x="-9"
     inkscape:window-y="41"
     inkscape:window-maximized="1"
     inkscape:current-layer="layer1">
    <inkscape:grid
       id="grid1"
       units="px"
       originx="0"
       originy="0"
       spacingx="1"
       spacingy="1"
       empcolor="#888888"
       empopacity="0.30196078"
       color="#737373"
       opacity="0.14901961"
       empspacing="4"
       dotted="false"
       gridanglex="30"
       gridanglez="30"
       visible="true" />
  </sodipodi:namedview>
  <defs
     id="defs1" />
  <g
     inkscape:label="Layer 1"
     inkscape:groupmode="layer"
     id="layer1">
    <path
       id="rect1"
       style="fill:#e0e0e0;stroke-width:16;stroke-miterlimit:4.2"
       d="M 3.9921875 3 C 2.8884144 3 2 3.8884144 2 4.9921875 L 2 11.007812 C 2 12.111585 2.8884144 13 3.9921875 13 L 12 13 L 14 15 L 14 11.007812 L 14 11 L 14 4.9921875 C 14 3.8884144 13.111585 3 12.007812 3 L 3.9921875 3 z M 5 5 L 11 5 A 1 1 0 0 1 12 6 A 1 1 0 0 1 11 7 L 5 7 A 1 1 0 0 1 4 6 A 1 1 0 0 1 5 5 z M 5 8 L 8 8 A 1 1 0 0 1 9 9 A 1 1 0 0 1 8 10 L 5 10 A 1 1 0 0 1 4 9 A 1 1 0 0 1 5 8 z " />
  </g>
</svg>
