<?xml version="1.0" encoding="UTF-8" standalone="no"?>
<!-- Created with Inkscape (http://www.inkscape.org/) -->

<svg
   width="16"
   height="16"
   viewBox="0 0 16 16"
   version="1.1"
   id="svg1"
   inkscape:version="1.3.2 (091e20e, 2023-11-25, custom)"
   sodipodi:docname="end.svg"
   xmlns:inkscape="http://www.inkscape.org/namespaces/inkscape"
   xmlns:sodipodi="http://sodipodi.sourceforge.net/DTD/sodipodi-0.dtd"
   xmlns="http://www.w3.org/2000/svg"
   xmlns:svg="http://www.w3.org/2000/svg">
  <sodipodi:namedview
     id="namedview1"
     pagecolor="#505050"
     bordercolor="#ffffff"
     borderopacity="1"
     inkscape:showpageshadow="0"
     inkscape:pageopacity="0"
     inkscape:pagecheckerboard="1"
     inkscape:deskcolor="#505050"
     inkscape:document-units="px"
     showgrid="true"
     inkscape:zoom="45.254834"
     inkscape:cx="8.6068154"
     inkscape:cy="8.2974561"
     inkscape:window-width="1920"
     inkscape:window-height="1001"
     inkscape:window-x="-9"
     inkscape:window-y="41"
     inkscape:window-maximized="1"
     inkscape:current-layer="layer1">
    <inkscape:grid
       id="grid1"
       units="px"
       originx="0"
       originy="0"
       spacingx="1"
       spacingy="1"
       empcolor="#888888"
       empopacity="0.30196078"
       color="#737373"
       opacity="0.14901961"
       empspacing="4"
       dotted="false"
       gridanglex="30"
       gridanglez="30"
       visible="true" />
  </sodipodi:namedview>
  <defs
     id="defs1" />
  <g
     inkscape:label="Layer 1"
     inkscape:groupmode="layer"
     id="layer1">
    <g
       id="path4">
      <path
         style="color:#000000;fill:#ff2a2a;stroke-linecap:round;stroke-linejoin:round;stroke-miterlimit:4.2;-inkscape-stroke:none"
         d="M 2,7 A 1,1 0 0 0 1,8 1,1 0 0 0 2,9 H 7 A 1,1 0 0 0 8,8 1,1 0 0 0 7,7 Z"
         id="path3" />
      <g
         id="g2">
        <path
           d="m 6.8521981,5.126099 4.4956039,2.247802 a 0.7,0.7 0 0 1 0,1.252198 L 6.8521981,10.873901 A 0.8652476,0.8652476 0 0 1 5.6,10.1 V 5.9 A 0.8652476,0.8652476 0 0 1 6.8521981,5.126099 Z"
           style="color:#000000;fill:#ff2a2a;fill-rule:evenodd;-inkscape-stroke:none"
           id="path2" />
      </g>
    </g>
    <path
       style="fill:none;fill-opacity:1;stroke:#ff2a2a;stroke-width:2;stroke-linecap:round;stroke-linejoin:round;stroke-miterlimit:4.2;stroke-dasharray:none;stroke-opacity:1"
       d="M 13,2 V 14"
       id="path5" />
  </g>
</svg>
