<?xml version="1.0" encoding="UTF-8" standalone="no"?>
<!-- Created with Inkscape (http://www.inkscape.org/) -->

<svg
   width="16"
   height="16"
   viewBox="0 0 16 16"
   version="1.1"
   id="svg1"
   inkscape:version="1.3.2 (091e20e, 2023-11-25, custom)"
   sodipodi:docname="entry.svg"
   xmlns:inkscape="http://www.inkscape.org/namespaces/inkscape"
   xmlns:sodipodi="http://sodipodi.sourceforge.net/DTD/sodipodi-0.dtd"
   xmlns="http://www.w3.org/2000/svg"
   xmlns:svg="http://www.w3.org/2000/svg">
  <sodipodi:namedview
     id="namedview1"
     pagecolor="#505050"
     bordercolor="#ffffff"
     borderopacity="1"
     inkscape:showpageshadow="0"
     inkscape:pageopacity="0"
     inkscape:pagecheckerboard="1"
     inkscape:deskcolor="#505050"
     inkscape:document-units="px"
     showgrid="true"
     inkscape:zoom="64"
     inkscape:cx="5.7578125"
     inkscape:cy="8.6484375"
     inkscape:window-width="1920"
     inkscape:window-height="1001"
     inkscape:window-x="-9"
     inkscape:window-y="41"
     inkscape:window-maximized="1"
     inkscape:current-layer="layer1">
    <inkscape:grid
       id="grid1"
       units="px"
       originx="0"
       originy="0"
       spacingx="1"
       spacingy="1"
       empcolor="#888888"
       empopacity="0.30196078"
       color="#737373"
       opacity="0.14901961"
       empspacing="4"
       dotted="false"
       gridanglex="30"
       gridanglez="30"
       visible="true" />
  </sodipodi:namedview>
  <defs
     id="defs1" />
  <g
     inkscape:label="Layer 1"
     inkscape:groupmode="layer"
     id="layer1">
    <g
       id="path4">
      <path
         style="color:#000000;fill:#00ff66;stroke-linecap:round;stroke-linejoin:round;stroke-miterlimit:4.2;-inkscape-stroke:none"
         d="M 2,4 A 1,1 0 0 0 1,5 v 4 a 1.0001,1.0001 0 0 0 1,1 h 8 A 1,1 0 0 0 11,9 1,1 0 0 0 10,8 H 3 V 5 A 1,1 0 0 0 2,4 Z"
         id="path3" />
      <g
         id="g2">
        <path
           d="m 9.8521981,6.126099 4.4956039,2.247802 a 0.7,0.7 0 0 1 0,1.252198 L 9.8521981,11.873901 A 0.8652476,0.8652476 0 0 1 8.6,11.1 V 6.9 A 0.8652476,0.8652476 0 0 1 9.8521981,6.126099 Z"
           style="color:#000000;fill:#00ff66;fill-rule:evenodd;-inkscape-stroke:none"
           id="path2" />
      </g>
    </g>
  </g>
</svg>
