<?xml version="1.0" encoding="UTF-8" standalone="no"?>
<!-- Created with Inkscape (http://www.inkscape.org/) -->

<svg
   width="16"
   height="16"
   viewBox="0 0 16 16"
   version="1.1"
   id="svg1"
   inkscape:version="1.3.2 (091e20e, 2023-11-25, custom)"
   sodipodi:docname="event.svg"
   xmlns:inkscape="http://www.inkscape.org/namespaces/inkscape"
   xmlns:sodipodi="http://sodipodi.sourceforge.net/DTD/sodipodi-0.dtd"
   xmlns="http://www.w3.org/2000/svg"
   xmlns:svg="http://www.w3.org/2000/svg">
  <sodipodi:namedview
     id="namedview1"
     pagecolor="#505050"
     bordercolor="#ffffff"
     borderopacity="1"
     inkscape:showpageshadow="0"
     inkscape:pageopacity="0"
     inkscape:pagecheckerboard="1"
     inkscape:deskcolor="#505050"
     inkscape:document-units="px"
     showgrid="true"
     inkscape:zoom="32"
     inkscape:cx="10.828125"
     inkscape:cy="6.953125"
     inkscape:window-width="1920"
     inkscape:window-height="1001"
     inkscape:window-x="-9"
     inkscape:window-y="41"
     inkscape:window-maximized="1"
     inkscape:current-layer="layer1">
    <inkscape:grid
       id="grid1"
       units="px"
       originx="0"
       originy="0"
       spacingx="1"
       spacingy="1"
       empcolor="#888888"
       empopacity="0.30196078"
       color="#737373"
       opacity="0.14901961"
       empspacing="4"
       dotted="false"
       gridanglex="30"
       gridanglez="30"
       visible="true" />
  </sodipodi:namedview>
  <defs
     id="defs1" />
  <g
     inkscape:label="Layer 1"
     inkscape:groupmode="layer"
     id="layer1">
    <g
       id="path4">
      <path
         style="color:#000000;fill:#2a7fff;stroke-linecap:round;stroke-linejoin:round;stroke-miterlimit:4.2;-inkscape-stroke:none"
         d="m 2,11 a 1,1 0 0 0 -1,1 1,1 0 0 0 1,1 h 8.535156 a 1,1 0 0 0 1,-1 1,1 0 0 0 -1,-1 z"
         id="path3" />
      <g
         id="g2">
        <path
           d="m 10.388159,9.126099 4.495604,2.247802 a 0.7,0.7 0 0 1 0,1.252198 l -4.495604,2.247802 A 0.8652476,0.8652476 0 0 1 9.135961,14.1 V 9.9 a 0.8652476,0.8652476 0 0 1 1.252198,-0.773901 z"
           style="color:#000000;fill:#2a7fff;fill-rule:evenodd;-inkscape-stroke:none"
           id="path2" />
      </g>
    </g>
    <path
       d="m 6.7861328,8.0103382 c -0.4202005,0 -0.7114312,0.076934 -0.8730469,0.2304688 -0.1535348,0.1454539 -0.2285156,0.4109506 -0.2285156,0.7988281 0,0.3797964 0.074981,0.6472456 0.2285156,0.8007816 0.1616157,0.145453 0.4528464,0.2187503 0.8730469,0.2187503 0.4202005,0 0.7077933,-0.0733 0.8613281,-0.2187503 0.1616156,-0.153536 0.2421875,-0.4209852 0.2421875,-0.8007816 0,-0.3878775 -0.080572,-0.6533742 -0.2421875,-0.7988281 C 7.4939261,8.0872721 7.2063333,8.0103382 6.7861328,8.0103382 Z"
       style="font-weight:bold;font-size:13.3333px;font-family:'Victor Mono';-inkscape-font-specification:'Victor Mono Bold';fill:#2a7fff;stroke-linecap:round;stroke-linejoin:round;stroke-miterlimit:4.2"
       id="path6" />
    <path
       d="M 5.96875,0.62695312 6.0917969,6.9785156 H 7.484375 L 7.6054687,0.62695312 Z"
       style="font-weight:bold;font-size:13.3333px;font-family:'Victor Mono';-inkscape-font-specification:'Victor Mono Bold';fill:#2a7fff;stroke-linecap:round;stroke-linejoin:round;stroke-miterlimit:4.2"
       id="path5" />
  </g>
</svg>
